<svg width="28" height="24" viewBox="0 0 28 24" fill="none" xmlns="http://www.w3.org/2000/svg">
<g filter="url(#filter0_d_6_174)">
<path fill-rule="evenodd" clip-rule="evenodd" d="M4.98776 7.94417C5.00394 7.90596 5.02307 7.86158 5.04516 7.8115C5.13139 7.61602 5.26262 7.33428 5.44037 6.99508C5.79644 6.31556 6.33606 5.41145 7.07013 4.50972C8.54296 2.7005 10.7515 0.954023 13.7973 0.954023C16.8431 0.954023 19.0514 2.70049 20.524 4.50969C21.258 5.41142 21.7975 6.31552 22.1535 6.99504C22.3312 7.33424 22.4624 7.61598 22.5486 7.81146C22.5704 7.86096 22.5894 7.90491 22.6054 7.94282C22.5904 7.97961 22.5728 8.02207 22.5525 8.06977C22.4702 8.26298 22.3445 8.54163 22.1728 8.87717C21.8289 9.54941 21.3037 10.4439 20.579 11.3361C19.1273 13.1234 16.9138 14.8585 13.7748 14.8585C10.6363 14.8585 8.43419 13.1239 6.99379 11.3375C6.27463 10.4456 5.75493 9.55127 5.41508 8.87919C5.24545 8.54372 5.1214 8.26515 5.04032 8.07199C5.02014 8.02391 5.00263 7.98116 4.98776 7.94417ZM23.1179 7.93921C23.5653 8.10166 23.5652 8.10186 23.5651 8.1021L23.5649 8.1027L23.5643 8.10442L23.5623 8.10986C23.5606 8.11437 23.5583 8.12064 23.5553 8.12862C23.5493 8.14457 23.5406 8.16735 23.5292 8.1965C23.5064 8.25479 23.4727 8.33859 23.4277 8.44426C23.3378 8.65554 23.2026 8.95473 23.0195 9.31258C22.6539 10.0271 22.0941 10.9817 21.3169 11.9386C19.7647 13.8494 17.3066 15.8125 13.7748 15.8125C10.2425 15.8125 7.79512 13.8489 6.25372 11.9372C5.48197 10.9801 4.92771 10.0253 4.5663 9.31056C4.38531 8.95263 4.25192 8.65337 4.16321 8.44204C4.11884 8.33633 4.08559 8.2525 4.06312 8.19419C4.05188 8.16503 4.04333 8.14224 4.03743 8.12627C4.03448 8.11829 4.03218 8.11201 4.03055 8.10749L4.02858 8.10205L4.02796 8.10033L4.02775 8.09972C4.02766 8.09949 4.02759 8.09928 4.47581 7.93921L4.02759 8.09928C3.98966 7.99253 3.99087 7.87572 4.03102 7.76979L4.47581 7.93921C4.03102 7.76979 4.0311 7.76959 4.03118 7.76937L4.0314 7.76878L4.03205 7.76709L4.03412 7.76169C4.03586 7.7572 4.03829 7.75093 4.04143 7.74294C4.04771 7.72696 4.05681 7.7041 4.06876 7.67482C4.09265 7.61626 4.12794 7.53197 4.17486 7.42563C4.26864 7.21302 4.40908 6.91178 4.59793 6.5514C4.97503 5.83176 5.54826 4.87032 6.33288 3.9065C7.89743 1.98462 10.3497 9.53674e-07 13.7973 9.53674e-07C17.245 9.53674e-07 19.697 1.98463 21.2613 3.90653C22.0458 4.87035 22.619 5.83179 22.996 6.55143C23.1848 6.91182 23.3252 7.21306 23.419 7.42567C23.4659 7.53202 23.5011 7.61631 23.525 7.67486C23.537 7.70414 23.5461 7.727 23.5523 7.74298C23.5548 7.74917 23.5568 7.75433 23.5584 7.75843L23.5596 7.76173L23.5617 7.76714L23.5626 7.76941C23.5627 7.76964 23.5627 7.76983 23.1179 7.93921ZM23.1179 7.93921L23.5627 7.76983C23.6032 7.87657 23.6041 7.99431 23.5653 8.10166L23.1179 7.93921Z" fill="#677185"/>
<path fill-rule="evenodd" clip-rule="evenodd" d="M13.7969 10.7093C12.3192 10.7093 11.1213 9.45432 11.1213 7.90625C11.1213 6.35818 12.3192 5.10322 13.7969 5.10322C15.2746 5.10322 16.4725 6.35818 16.4725 7.90625C16.4725 9.45432 15.2746 10.7093 13.7969 10.7093ZM10.1875 7.90625C10.1875 9.99457 11.8035 11.6875 13.7969 11.6875C15.7903 11.6875 17.4062 9.99457 17.4062 7.90625C17.4062 5.81792 15.7903 4.125 13.7969 4.125C11.8035 4.125 10.1875 5.81792 10.1875 7.90625Z" fill="#677185"/>
</g>
<defs>
<filter id="filter0_d_6_174" x="0" y="9.53674e-07" width="27.5938" height="23.8125" filterUnits="userSpaceOnUse" color-interpolation-filters="sRGB">
<feFlood flood-opacity="0" result="BackgroundImageFix"/>
<feColorMatrix in="SourceAlpha" type="matrix" values="0 0 0 0 0 0 0 0 0 0 0 0 0 0 0 0 0 0 127 0" result="hardAlpha"/>
<feOffset dy="4"/>
<feGaussianBlur stdDeviation="2"/>
<feComposite in2="hardAlpha" operator="out"/>
<feColorMatrix type="matrix" values="0 0 0 0 0 0 0 0 0 0 0 0 0 0 0 0 0 0 0.25 0"/>
<feBlend mode="normal" in2="BackgroundImageFix" result="effect1_dropShadow_6_174"/>
<feBlend mode="normal" in="SourceGraphic" in2="effect1_dropShadow_6_174" result="shape"/>
</filter>
</defs>
</svg>
